<svg xmlns="http://www.w3.org/2000/svg" width="1156.619" height="1156.619" viewBox="0 0 1156.619 1156.619">
  <g id="back-asset" fill="none" opacity="0.09">
    <path d="M578.309,0C897.7,0,1156.619,258.918,1156.619,578.309S897.7,1156.619,578.309,1156.619,0,897.7,0,578.309,258.918,0,578.309,0Z" stroke="none"/>
    <path d="M 578.309326171875 100 C 314.568603515625 100 100 314.568603515625 100 578.309326171875 C 100 842.050048828125 314.568603515625 1056.61865234375 578.309326171875 1056.61865234375 C 842.050048828125 1056.61865234375 1056.61865234375 842.050048828125 1056.61865234375 578.309326171875 C 1056.61865234375 314.568603515625 842.050048828125 100 578.309326171875 100 M 578.309326171875 0 C 897.7007446289062 0 1156.61865234375 258.9179077148438 1156.61865234375 578.309326171875 C 1156.61865234375 897.7007446289062 897.7007446289062 1156.61865234375 578.309326171875 1156.61865234375 C 258.9179077148438 1156.61865234375 0 897.7007446289062 0 578.309326171875 C 0 258.9179077148438 258.9179077148438 0 578.309326171875 0 Z" stroke="none" fill="#3b5998"/>
  </g>
</svg>
